<svg xmlns="http://www.w3.org/2000/svg" viewBox="0 0 100 100" fill="none">
  <defs>
    <linearGradient id="mainGradient" x1="0%" y1="0%" x2="100%" y2="100%">
      <stop offset="0%" style="stop-color:#0066FF;stop-opacity:1" />
      <stop offset="50%" style="stop-color:#0099FF;stop-opacity:1" />
      <stop offset="100%" style="stop-color:#00CCFF;stop-opacity:1" />
    </linearGradient>
    <linearGradient id="accentGradient" x1="0%" y1="0%" x2="100%" y2="0%">
      <stop offset="0%" style="stop-color:#00FF88;stop-opacity:1" />
      <stop offset="100%" style="stop-color:#00CC66;stop-opacity:1" />
    </linearGradient>
    <linearGradient id="orangeGradient" x1="0%" y1="0%" x2="100%" y2="100%">
      <stop offset="0%" style="stop-color:#FF6600;stop-opacity:1" />
      <stop offset="100%" style="stop-color:#FF9933;stop-opacity:1" />
    </linearGradient>
  </defs>

  <!-- Shield/Badge Shape with Geometric Design -->
  <g id="logo-icon">
    <!-- Outer shield -->
    <path d="M 25 10 L 75 10 Q 90 10 90 25 L 90 60 Q 90 80 70 88 L 50 95 L 30 88 Q 10 80 10 60 L 10 25 Q 10 10 25 10 Z"
          fill="url(#mainGradient)" stroke="#0044CC" stroke-width="3"/>

    <!-- Inner geometric pattern - upward arrow/chart -->
    <path d="M 20 70 L 30 48 L 38 58 L 50 38 L 62 50 L 70 28 L 80 35"
          stroke="url(#accentGradient)" stroke-width="5" stroke-linecap="round" stroke-linejoin="round" fill="none"/>

    <!-- Greek Delta symbol (Δ) stylized -->
    <path d="M 50 25 L 30 55 L 70 55 Z"
          fill="#FFFFFF" opacity="0.95"/>

    <!-- Accent dots for modern touch -->
    <circle cx="38" cy="38" r="3" fill="url(#orangeGradient)"/>
    <circle cx="62" cy="38" r="3" fill="url(#orangeGradient)"/>

    <!-- Bottom accent bar -->
    <rect x="25" y="75" width="50" height="5" rx="2.5" fill="url(#accentGradient)"/>
  </g>
</svg>
